<?xml version="1.0" encoding="UTF-8"?>
<svg id="Layer_2" data-name="Layer 2" xmlns="http://www.w3.org/2000/svg" xmlns:xlink="http://www.w3.org/1999/xlink" viewBox="0 0 141.11 428.42">
  <defs>
    <style>
      .cls-1 {
        fill: #a54921;
      }

      .cls-2 {
        opacity: .97;
      }

      .cls-3 {
        fill: #c65720;
      }

      .cls-4 {
        fill: url(#linear-gradient);
      }
    </style>
    <linearGradient id="linear-gradient" x1="96.85" y1="213.71" x2="141.11" y2="213.71" gradientUnits="userSpaceOnUse">
      <stop offset="0" stop-color="#a54921"/>
      <stop offset="1" stop-color="#c65720"/>
    </linearGradient>
  </defs>
  <g id="curtain_1" data-name="curtain 1" class="cls-2">
    <g>
      <path class="cls-3" d="M13.1,0s8.34,121.71,5.09,133.08c-3.25,11.37-9.74,80.93-11.04,89.32-1.3,8.39-7.15,201.92-7.15,201.92h28.15L40.03,0H13.1Z"/>
      <path class="cls-3" d="M47.87,0l-13,424.33h13.31s.12.06.35.15c1.62-35.68,8.19-70.79,9.24-106.66,3.6-97,1.2-194,3.6-291,0-9.01,1.74-18.02,4.16-26.82h-17.66Z"/>
      <polygon class="cls-1" points="40.03 0 28.15 424.33 34.87 424.33 47.87 0 40.03 0"/>
      <path class="cls-1" d="M65.53,0c-2.42,8.8-4.16,17.81-4.16,26.82-2.4,97,0,194-3.6,291-1.05,35.87-7.61,70.98-9.24,106.66,1.23.47,6.04,1.9,18.48,1.75,9-.11,11.27.84,13.61,1.53L89.5,0h-23.97Z"/>
      <path class="cls-3" d="M89.5,0l-8.87,427.76c1.52.44,3.08.78,6.52.63,3.22-.13,6.36-.54,9.69-.98L110.21,0h-20.71Z"/>
      <path class="cls-4" d="M140.97,169.08V0h-30.76l-13.36,427.41c5.75-.75,12.07-1.58,20.3-1.18,12.99.63,23.49-2.26,23.82-3.25.32-.99,0-253.89,0-253.89Z"/>
    </g>
  </g>
</svg>