<?xml version="1.0" encoding="UTF-8"?>
<svg id="Layer_2" data-name="Layer 2" xmlns="http://www.w3.org/2000/svg" xmlns:xlink="http://www.w3.org/1999/xlink" viewBox="0 0 89.6 428.42">
  <defs>
    <style>
      .cls-1 {
        fill: #a54921;
      }

      .cls-2 {
        opacity: .97;
      }

      .cls-3 {
        fill: #c65720;
      }

      .cls-4 {
        fill: url(#linear-gradient);
      }
    </style>
    <linearGradient id="linear-gradient" x1="61.5" y1="213.71" x2="89.6" y2="213.71" gradientUnits="userSpaceOnUse">
      <stop offset="0" stop-color="#a54921"/>
      <stop offset="1" stop-color="#c65720"/>
    </linearGradient>
  </defs>
  <g id="curtain_3" data-name="curtain 3" class="cls-2">
    <g>
      <path class="cls-3" d="M8.32,0s5.29,121.71,3.23,133.08c-2.06,11.37-6.19,80.93-7.01,89.32-.83,8.39-4.54,201.92-4.54,201.92h17.88L25.42,0H8.32Z"/>
      <path class="cls-3" d="M30.4,0l-8.25,424.33h8.45s.08.06.23.15c1.03-35.68,5.2-70.79,5.86-106.66,2.29-97,.76-194,2.29-291,0-9.01,1.1-18.02,2.64-26.82h-11.21Z"/>
      <polygon class="cls-1" points="25.42 0 17.88 424.33 22.14 424.33 30.4 0 25.42 0"/>
      <path class="cls-1" d="M41.61,0c-1.54,8.8-2.64,17.81-2.64,26.82-1.52,97,0,194-2.29,291-.67,35.87-4.83,70.98-5.86,106.66.78.47,3.84,1.9,11.74,1.75,5.72-.11,7.15.84,8.65,1.53L56.83,0h-15.22Z"/>
      <path class="cls-3" d="M56.83,0l-5.63,427.76c.97.44,1.95.78,4.14.63,2.04-.13,4.04-.54,6.15-.98L69.98,0h-13.15Z"/>
      <path class="cls-4" d="M89.51,169.08V0h-19.53l-8.48,427.41c3.65-.75,7.66-1.58,12.89-1.18,8.25.63,14.92-2.26,15.13-3.25.21-.99,0-253.89,0-253.89Z"/>
    </g>
  </g>
</svg>