<?xml version="1.0" encoding="UTF-8"?>
<svg id="Layer_2" data-name="Layer 2" xmlns="http://www.w3.org/2000/svg" xmlns:xlink="http://www.w3.org/1999/xlink" viewBox="0 0 49.58 428.42">
  <defs>
    <style>
      .cls-1 {
        fill: #a54921;
      }

      .cls-2 {
        opacity: .97;
      }

      .cls-3 {
        fill: #c65720;
      }

      .cls-4 {
        fill: url(#linear-gradient);
      }
    </style>
    <linearGradient id="linear-gradient" x1="34.03" y1="213.71" x2="49.58" y2="213.71" gradientUnits="userSpaceOnUse">
      <stop offset="0" stop-color="#a54921"/>
      <stop offset="1" stop-color="#c65720"/>
    </linearGradient>
  </defs>
  <g id="curtain_4" data-name="curtain 4" class="cls-2">
    <g>
      <path class="cls-3" d="M4.6,0s2.93,121.71,1.79,133.08c-1.14,11.37-3.42,80.93-3.88,89.32-.46,8.39-2.51,201.92-2.51,201.92h9.89L14.07,0H4.6Z"/>
      <path class="cls-3" d="M16.82,0l-4.57,424.33h4.68s.04.06.12.15c.57-35.68,2.88-70.79,3.25-106.66,1.26-97,.42-194,1.26-291,0-9.01.61-18.02,1.46-26.82h-6.21Z"/>
      <polygon class="cls-1" points="14.07 0 9.89 424.33 12.25 424.33 16.82 0 14.07 0"/>
      <path class="cls-1" d="M23.03,0c-.85,8.8-1.46,17.81-1.46,26.82-.84,97,0,194-1.26,291-.37,35.87-2.67,70.98-3.25,106.66.43.47,2.12,1.9,6.49,1.75,3.16-.11,3.96.84,4.78,1.53L31.45,0h-8.42Z"/>
      <path class="cls-3" d="M31.45,0l-3.11,427.76c.53.44,1.08.78,2.29.63,1.13-.13,2.23-.54,3.4-.98L38.72,0h-7.28Z"/>
      <path class="cls-4" d="M49.53,169.08V0h-10.81l-4.69,427.41c2.02-.75,4.24-1.58,7.13-1.18,4.56.63,8.25-2.26,8.37-3.25.11-.99,0-253.89,0-253.89Z"/>
    </g>
  </g>
</svg>