<?xml version="1.0" encoding="UTF-8"?>
<svg xmlns="http://www.w3.org/2000/svg" xmlns:xlink="http://www.w3.org/1999/xlink" viewBox="0 0 1920 1080">
  <defs>
    <style>
      .cls-1 {
        fill: #6c5f4f;
      }

      .cls-2 {
        fill: url(#linear-gradient-2);
      }

      .cls-3 {
        stroke-width: 1px;
      }

      .cls-3, .cls-4, .cls-5, .cls-6, .cls-7, .cls-8, .cls-9, .cls-10, .cls-11 {
        stroke-miterlimit: 10;
      }

      .cls-3, .cls-5, .cls-6, .cls-7, .cls-8, .cls-9, .cls-10, .cls-11 {
        stroke: #000;
      }

      .cls-3, .cls-6, .cls-7, .cls-8, .cls-9, .cls-10 {
        fill: none;
      }

      .cls-4 {
        fill: url(#linear-gradient-3);
        stroke: #fff;
        stroke-width: 6px;
      }

      .cls-12 {
        fill: #848484;
      }

      .cls-13 {
        fill: #2d2d2d;
      }

      .cls-5, .cls-14, .cls-11 {
        fill: #fff;
      }

      .cls-5, .cls-11 {
        stroke-width: .51px;
      }

      .cls-6 {
        stroke-width: .76px;
      }

      .cls-15 {
        fill: #c65720;
      }

      .cls-7 {
        stroke-width: .45px;
      }

      .cls-16 {
        fill: #c9c0bc;
      }

      .cls-8 {
        stroke-width: .82px;
      }

      .cls-17 {
        fill: #dd8762;
      }

      .cls-9 {
        stroke-width: .85px;
      }

      .cls-10 {
        stroke-width: .76px;
      }

      .cls-18 {
        fill: #fff0e9;
      }

      .cls-19 {
        fill: #d6d6d6;
      }

      .cls-20 {
        fill: #ccc;
      }

      .cls-21 {
        fill: url(#linear-gradient);
      }

      .cls-11 {
        opacity: .5;
      }
    </style>
    <linearGradient id="linear-gradient" x1="0" y1="540" x2="1920" y2="540" gradientUnits="userSpaceOnUse">
      <stop offset="0" stop-color="#e9d09a"/>
      <stop offset="1" stop-color="#eeab7e"/>
    </linearGradient>
    <linearGradient id="linear-gradient-2" x1="1104.28" y1="997.15" x2="1104.28" y2="289.05" gradientUnits="userSpaceOnUse">
      <stop offset="0" stop-color="#998675"/>
      <stop offset="1" stop-color="#6c5f4f"/>
    </linearGradient>
    <linearGradient id="linear-gradient-3" x1="1184.65" y1="476.8" x2="1284.8" y2="476.8" gradientUnits="userSpaceOnUse">
      <stop offset="0" stop-color="#4d4d4d"/>
      <stop offset=".3" stop-color="#999"/>
      <stop offset=".31" stop-color="#9b9b9b"/>
      <stop offset=".41" stop-color="#bbb"/>
      <stop offset=".5" stop-color="#d3d3d3"/>
      <stop offset=".59" stop-color="#e1e1e1"/>
      <stop offset=".67" stop-color="#e6e6e6"/>
      <stop offset="1" stop-color="#999"/>
    </linearGradient>
  </defs>
  <g id="background">
    <rect class="cls-21" width="1920" height="1080"/>
  </g>
  <g id="Layer_3" data-name="Layer 3">
    <g id="Layer_5" data-name="Layer 5">
      <rect class="cls-2" x="940.85" y="289.05" width="326.86" height="708.09"/>
    </g>
    <g>
      <rect class="cls-18" x="1173.83" y="308.81" width="121.8" height="669.11"/>
      <rect class="cls-18" x="618.4" y="301.78" width="322.45" height="676.15"/>
      <rect class="cls-1" x="618.4" y="977.93" width="322.45" height="38.44"/>
      <rect class="cls-1" x="1173.83" y="977.93" width="121.8" height="38.98"/>
      <polygon class="cls-1" points="940.85 269.3 618.4 269.3 618.4 308.81 940.85 308.81 940.85 289.05 1173.83 289.05 1173.83 308.81 1296.73 308.81 1296.73 289.05 1296.73 279.18 1296.73 269.3 940.85 269.3"/>
    </g>
    <g>
      <rect class="cls-19" x="618.4" y="997.42" width="677.23" height="27.07"/>
      <rect class="cls-19" x="618.4" y="249.27" width="678.33" height="20.03"/>
      <rect class="cls-19" x="607.03" y="249.27" width="16.24" height="775.22"/>
      <rect class="cls-19" x="1296.73" y="248.72" width="16.24" height="775.22"/>
    </g>
  </g>
  <g id="Layer_2" data-name="Layer 2">
    <g>
      <path class="cls-16" d="M935.59-81.87h84.45c21.87,0,39.63,17.76,39.63,39.63v418.21c0,21.87-17.76,39.63-39.63,39.63h-84.45c-21.87,0-39.63-17.76-39.63-39.63V-42.24c0-21.87,17.76-39.63,39.63-39.63Z" transform="translate(1144.68 -810.95) rotate(90)"/>
      <rect class="cls-18" x="739.08" y="95.01" width="477.47" height="143.71" rx="29.63" ry="29.63"/>
    </g>
    <g>
      <path class="cls-17" d="M939.47-61.56h76.68c14.76,0,26.75,11.99,26.75,26.75v403.35c0,14.76-11.99,26.75-26.75,26.75h-76.68c-14.76,0-26.75-11.99-26.75-26.75V-34.81c0-14.76,11.99-26.75,26.75-26.75Z" transform="translate(1144.68 -810.95) rotate(90)"/>
      <rect class="cls-15" x="759.03" y="111.06" width="437.57" height="111.61" rx="17.29" ry="17.29"/>
    </g>
    <path class="cls-14" d="M781.58,122.79h21.37c2.32,0,4.19,1.88,4.19,4.19v80.72h-27.36l-2.45-80.54c-.07-2.39,1.85-4.37,4.24-4.37Z"/>
    <path class="cls-14" d="M811.01,184.51v-59c0-2.24,1.96-4.01,4.18-3.74,16.49,1.99,24.93,14.89,27.53,28.21.02.12.04.24.06.36,3.15,26.26-8.88,35.75-27.56,37.91-2.24.26-4.2-1.49-4.2-3.74Z"/>
    <path class="cls-14" d="M907.67,124.86h-23.74c-1.64,0-2.97,1.33-2.97,2.97v25.55h-4.65v-25.55c0-1.64-1.33-2.97-2.97-2.97h-23.74c-1.64,0-2.97,1.33-2.97,2.97v77.95c0,1.64,1.33,2.97,2.97,2.97h23.74c1.64,0,2.97-1.33,2.97-2.97v-38.97h4.65v38.97c0,1.64,1.33,2.97,2.97,2.97h23.74c1.64,0,2.97-1.33,2.97-2.97v-77.95c0-1.64-1.33-2.97-2.97-2.97Z"/>
    <g>
      <path class="cls-14" d="M953.74,207.02v-80.42c0-1.85,1.73-3.25,3.54-2.82,21.83,5.22,32.98,20.13,32.08,45.97-.55,24.22-11.77,37.14-32.33,40.13-1.73.25-3.28-1.11-3.28-2.86Z"/>
      <path class="cls-14" d="M950.02,207.02v-80.42c0-1.85-1.73-3.25-3.54-2.82-21.83,5.22-32.98,20.13-32.08,45.97.55,24.22,11.77,37.14,32.33,40.13,1.73.25,3.28-1.11,3.28-2.86Z"/>
    </g>
    <g>
      <path class="cls-14" d="M1091.51,207.02v-80.42c0-1.85,1.73-3.25,3.54-2.82,21.83,5.22,32.98,20.13,32.08,45.97-.55,24.22-11.77,37.14-32.33,40.13-1.73.25-3.28-1.11-3.28-2.86Z"/>
      <path class="cls-14" d="M1087.8,207.02v-80.42c0-1.85-1.73-3.25-3.54-2.82-21.83,5.22-32.98,20.13-32.08,45.97.55,24.22,11.77,37.14,32.33,40.13,1.73.25,3.28-1.11,3.28-2.86Z"/>
    </g>
    <path class="cls-14" d="M1012.26,158.67h16.32c2.85,0,5.16,2.31,5.16,5.16v38.97c0,3.14-2.54,5.68-5.68,5.68h-14.9c-2.91,0-5.29-2.32-5.37-5.23l-1.01-38.96c-.08-3.08,2.39-5.62,5.47-5.62Z"/>
    <path class="cls-14" d="M1147.36,172.07l36.03-29.82c2.17-1.8,2.54-5.22.81-7.49-5.43-7.14-18.39-18.81-37.67-2.62-19.8,16.63-10.83,32.6-5.42,39.28,1.6,1.97,4.3,2.25,6.24.65Z"/>
    <path class="cls-14" d="M1131.58,190.48l43.84-37.01c1.28-1.08,3.18-.84,4.15.53,5.26,7.43,18.51,30.34-1.87,49.59-18.72,17.68-38.11,3.22-46.42-4.83-2.36-2.29-2.22-6.16.3-8.28Z"/>
    <path class="cls-14" d="M992.72,144.74c0,.82.21,1.63.63,2.33,1.65,2.77,7.42,8.47,26.92,7.75,25.64-.95,28.75-6.63,29.83-9.2.73-1.74.47-10.44.23-15.87-.11-2.48-2.15-4.43-4.63-4.43h-48.35c-2.56,0-4.63,2.07-4.63,4.63v14.79Z"/>
  </g>
  <g id="Layer_4" data-name="Layer 4">
    <g>
      <rect class="cls-12" x="739.91" y="761.64" width="54.42" height="122.85" rx="6.11" ry="6.11"/>
      <g>
        <rect class="cls-1" x="751.16" y="775.65" width="31.93" height="26.39" rx="3.04" ry="3.04"/>
        <rect class="cls-1" x="751.16" y="804.98" width="14.45" height="68.97" rx="3.31" ry="3.31"/>
        <rect class="cls-1" x="768.64" y="804.98" width="14.45" height="68.97" rx="3.31" ry="3.31"/>
      </g>
    </g>
  </g>
  <g id="names">
    <g>
      <rect class="cls-4" x="1184.65" y="319.8" width="100.15" height="313.98" rx="10.96" ry="10.96"/>
      <rect class="cls-14" x="1197.01" y="334.49" width="75.44" height="25.98"/>
    </g>
  </g>
  <g id="emmy">
    <g>
      <g>
        <path class="cls-15" d="M655.78,740.77h248.26c4.42,0,8-4.81,8-10.75v-407.1c0-5.94-3.58-10.75-8-10.75h-251.35c-4.45,0-8.04,4.88-8,10.86l3.09,407.1c.04,5.9,3.61,10.64,8,10.64Z"/>
        <g>
          <rect class="cls-14" x="771.52" y="322.73" width="136.05" height="136.05" rx="18.78" ry="18.78" transform="translate(1230.3 -448.79) rotate(90)"/>
          <rect x="777.08" y="326.93" width="127.65" height="127.65" rx="17.66" ry="17.66" transform="translate(1231.66 -450.15) rotate(90)"/>
          <rect class="cls-20" x="777.08" y="326.56" width="122.9" height="122.39" rx="14.4" ry="14.4"/>
        </g>
        <g>
          <path class="cls-14" d="M665.45,457.48h103.97c10.52,0,19.06,8.54,19.06,19.06v96.04c0,10.52-8.54,19.06-19.06,19.06h-103.97c-10.52,0-19.06-8.54-19.06-19.06v-96.04c0-10.52,8.54-19.06,19.06-19.06Z" transform="translate(1241.99 -192.87) rotate(90)"/>
          <rect x="652.12" y="461.62" width="133.31" height="125.88" rx="17.92" ry="17.92" transform="translate(1243.33 -194.21) rotate(90)"/>
          <rect class="cls-20" x="655.84" y="457.52" width="121.2" height="127.81" rx="14.61" ry="14.61"/>
        </g>
        <g>
          <rect class="cls-14" x="769.92" y="598.46" width="142.45" height="127.77" rx="18.62" ry="18.62" transform="translate(1503.48 -178.8) rotate(90)"/>
          <rect x="775.59" y="602.4" width="133.65" height="119.88" rx="17.51" ry="17.51" transform="translate(1504.76 -180.07) rotate(90)"/>
          <rect class="cls-20" x="782.48" y="595.13" width="115.42" height="128.15" rx="14.28" ry="14.28"/>
        </g>
        <g>
          <g>
            <path class="cls-14" d="M834.4,416.25c-5.92,0-10.62-2.33-14.92-6.62-5.29-5.29-9.25-11.74-10.98-19.01-1.49-6.28-3.44-15.23-3.53-19.33-.21-10.03,0,0,0,0l6.31-12.11s46.96-6.67,49.97,6.41l1.41,11.45c7.91-.97,9.76,14.07,1.85,15.04-.31,18.61-12.13,24.73-30.11,24.17Z"/>
            <path class="cls-13" d="M791.78,378.56s0-10.28,8.91-14.25c0,0,4.34-2.39,4.73-4.18.57-2.63,8.05-7.13,23.5-7.06,15.45.07,34.12,7.06,34.12,7.06,0,0-2.19,7.26-11.79,10s-22.54-3.56-27.55-4.32-28.78-5.76-31.93,12.75Z"/>
            <path d="M791.1,378.49s-.24,2.2,2.51,1.39,8.34-7.75,11.37-8.04,4.26-.91,5.21-7.46c0,0-15.44-1.29-19.09,14.11Z"/>
            <path d="M805.81,359.28s0-25.46,21.6-29.57c22.15-4.21,32.48,1,41.32,14.79,8.84,13.79,7.81,21.32,7.81,21.32,0,0-3.22-3.91-13.5-5.69-22.94-7.91-43.16-10.46-57.23-.85Z"/>
            <path class="cls-14" d="M817.64,344.17s3.11-2.56,3.24-3.65-1.62-4.66-1.62-4.66c-.37-.74,2.21-2.02,2.58-1.28l.59,3.97,4.57-5.66c.48-.6,2.12.73,1.64,1.32l-3.93,4.32,4.48-3.72c.76-.95,2.64.56,1.87,1.51l-2.56,3.11.64,3.47c1.12,4.36-2.37,4.86-2.51,1.6l-.05-4.84-4.57,3.65-.14,3.2c-.18,3.59-3.88,3.62-3.01.56l.73-2.66-4.66,4.66c-1.26,1.1-2.54-.36-1.28-1.46l2.47-3.33.59-3.79c.03-1.36.36-2.06,1.07-1.92.6.12.94.76.81,1.35l-.96,4.26Z"/>
            <path class="cls-7" d="M822.48,380.06l-.75,7.19c-.13,1.22-.31,2.43-.6,3.62-.35,1.42-.5,3.86,2.66,3.86"/>
            <path d="M818.6,372.21c-1.57-1.18-9.25-2.48-9.91,0-.39-1.09.76-2.14,1.71-2.45,2.62-.95,6.95-.3,8.2,2.45h0Z"/>
            <path d="M831.25,372.21c3.99-2.72,9.52-2.16,13.64,0-4.62-.06-9.04-.66-13.64,0h0Z"/>
            <path d="M851.59,370.75c1.37,2.58,6.62,12.79,8.12,20.21.14.68,1.29.69,1.25,0-.3-5.68-.7-14.75,3.13-13.92,7.74,1.68,6.54,14.2.54,15.03-.34.05-.12.31-.14.66-.08,2.16-.55,9.25-3.07,12.63-3,4.01-.75,8.57-.35,9.94s-13.7,13.68-4.49,23.14c.01.01.03.03.05.04l5.87,5.17c.49.43,1.23-.06,1.03-.68-.93-2.91-1.38-7.63,3.84-10.33,7.95-4.11,16.31-15.4,15.62-25-.66-9.2-5.97-39.15-6.41-41.64-.02-.11-.07-.22-.14-.3-.75-.87-5.19-5.63-13.12-5.55-.18,0-.36.08-.48.22-1.09,1.23-6.25,7.38-10.96,9.53-.33.15-.46.55-.29.87Z"/>
            <path d="M828.58,446.61c4.61.67,9.01-10.56-5.45-16.92-7.78-3.43-3.12-14.39-3.12-14.39,0,0,.77-2.08-11.33-12.47-13.12-11.27-8.73-30.29-6.04-31.04l5.76-1.36s-.72,21.91,5.01,32.39c5.73,10.48,16.33,12.9,16.33,12.9,20.22,13.49,18.96,21.05,17.78,23.41-2.56,8.39-7.96,12.31-18.95,7.48Z"/>
            <g>
              <path class="cls-5" d="M820.01,381.31c1.82-1.74,3.87-2.1,6.24-.41"/>
              <path class="cls-11" d="M853.18,383.47c0,6.22-6.03,11.26-13.46,11.26s-13.46-5.04-13.46-11.26,6.03-11.26,13.46-11.26c5.33,0,9.94,2.59,12.12,6.35.86,1.48,1.34,3.15,1.34,4.91Z"/>
              <circle class="cls-11" cx="811.02" cy="385.78" r="9.96"/>
              <line class="cls-5" x1="862.67" y1="377.04" x2="851.84" y2="378.56"/>
            </g>
            <circle cx="838.54" cy="380.42" r="2.12"/>
            <circle cx="813.41" cy="382.19" r="2.12"/>
          </g>
          <g>
            <path d="M818.6,404.14c1.03-2.48,4.02-4.33,6.65-3.05,0,0-1.13.02-1.13.02,2.17-1.41,5.24-2.18,7.44-.33,2.53,1.67,5.35,2.99,8.16,4.26-3.43.44-7.11-.55-10.04-2.39-1.51-.8-3.51.08-5.06.74,0,0-.46-.27-.46-.27-1.82-1.19-3.83-.07-5.56,1.02h0Z"/>
            <path d="M819.97,406.02c4.64,1.75,9.93,2.67,14.42,0-3.98,3.69-10.2,2.8-14.42,0h0Z"/>
          </g>
        </g>
        <g>
          <g>
            <path d="M690.84,526.46s5.37,15.12,13.48,19.03c0,0,8.1,18.26,9.27,27.47,1.17,9.2,0,14.97,0,14.97,0,0-6.8-17.65-12.5-16.48,0,0,3.5,14.08-.69,18.4,0,0-14.35-46.76-24.99-47.79,0,0-16-6.73-9.89-22.45,6.11-15.72,9.96-40.31,16-47.65,6.04-7.35,13.39-13.25,30.35-12.63s26.85,10.92,33.16,24.65,12.63,61.73,11.33,69.69c-1.3,7.96-4.63,29.32-9.42,35.02,0,0,1.94-11.95.98-17.44,0,0-4.05,13.46-8.03,15.93,0,0,2.29-45.42-5.78-42.14,0,0,10.41-6.54,11.66-22.61,1.26-16.07-8.76-32.22-58.65-9.55,0,0-5.61,1.58-4.54,7.55s4.4,6.77,8.26,6.03Z"/>
            <path class="cls-14" d="M692.86,516.63l-5.73-3.76c-8.27,2.27-4.55,15.85,3.72,13.59,3.65,9.7,11.01,21.74,25.15,22.54,23.89,1.34,28.77-16.07,29.78-26.57,1.02-10.51-9.68-46.66-29.1-45.73-19.42.93-32.56,24.62-29.55,36.18"/>
            <ellipse class="cls-6" cx="736.01" cy="517.05" rx="10.94" ry="7.51"/>
            <ellipse class="cls-8" cx="704.69" cy="518.08" rx="12.03" ry="7.93"/>
            <path d="M711.87,534.64c2.19-.93,4.75-1.43,6.8-2.53,1.56-1.06,3.63-.72,5.28-.27,0,0-.93.11-.93.11,1.52-.79,2.97-1.6,4.83-1.32,1.3.54,2.66.8,4.09,1.03.94.16,1.89.34,2.86.38-2.27.9-4.9,1.11-7.29.55-1.23.07-2.63.93-3.75,1.57,0,0-.5-.14-.5-.14-1.12-.28-2.34-.6-3.41-.24-2.57,1.14-5.28,1.03-7.99.87h0Z"/>
            <path class="cls-10" d="M721.24,508.41s1.48,12.25,3.35,13.32c0,0,5.89,4.57,0,5.49"/>
            <circle cx="730.89" cy="509.54" r="1.96"/>
            <circle cx="704.32" cy="510.65" r="1.96"/>
            <path d="M725.07,503.54c2.05-4.75,8.03-6.82,11.59-2.4-1.1-.38-2.12-.75-3.14-.91-3.29-.63-5.88,1.52-8.45,3.32h0Z"/>
            <path d="M707.7,503.86c-4.6-1.85-7.65-2.61-11.81.72,2.28-5.2,8.59-4.76,11.81-.72h0Z"/>
            <path class="cls-9" d="M716.08,515.74c3.59-2.18,6.32-3.45,9.06.48"/>
          </g>
          <path d="M716.88,535.72c4.4.67,8.9,1.11,12.93-1.17-3.42,3.25-8.87,2.9-12.93,1.17h0Z"/>
        </g>
        <g>
          <path class="cls-14" d="M678.49,329.93v20.24c0,1.53-1.22,2.79-2.75,2.83l-15.5.49c-4.17.13-7.52,3.47-7.69,7.63-.84,19.73,2.3,32.06,26.24,32.63.19,0,.38-.01.57-.05,2-.37,13.48-2.8,16.25-10.88,2.41-7,2.43-11.91,2.36-13.52-.03-.56-.04-1.11-.04-1.67-.05-6.59-.68-30.17-.89-37.81-.04-1.4-1.09-2.55-2.48-2.73-5.11-.65-10.02-1.01-13.97.07-1.24.34-2.1,1.46-2.1,2.74Z"/>
          <path class="cls-14" d="M687.3,439.62c0,2.7,16.69,2.7,16.69,0l1.01-9.12c.29-2.58,2.47-4.54,5.07-4.54h0c2.44,0,4.54,1.73,5.01,4.12l2.06,10.54c0,3.22,7.13,4.34,12.12,3.37,2.9-.56,4.71-3.49,3.93-6.34l-14.87-54.68c0-4.41-18.21-4.49-18.86-.24l-.27.89c-6.04,15.52-9.66,34.7-11.88,55.98Z"/>
          <path class="cls-14" d="M754.19,395.06c3.62.92,7.08,1.14,10.35.52,2.1-.4,3.63-2.23,3.63-4.36v-59.6c0-2.04-1.66-3.7-3.7-3.7h-46.7c-1.84,0-3.33,1.49-3.33,3.33v43.97c0,2.6,15.96,2.6,15.96,0v-13.69c0-.36.48-.11.64.22l3.88,8.11c.39.82,1.23,1.35,2.14,1.35h6.99c1.18,0,2.25-.71,2.71-1.81l3.85-9.23c.21-.49.94-.35.95.18l.61,32.14c.02,1.21.84,2.28,2.02,2.58Z"/>
        </g>
        <path class="cls-14" d="M748.71,725.51c3.38,1.14,6.62,1.42,9.67.64,1.96-.5,3.39-2.76,3.39-5.41v-73.86c0-2.53-1.55-4.59-3.46-4.59h-43.66c-1.72,0-3.11,1.85-3.11,4.12v54.48c0,3.22,14.92,3.22,14.92,0v-16.97c0-.44.45-.13.6.27l3.63,10.05c.37,1.02,1.15,1.67,2,1.67h6.54c1.11,0,2.11-.88,2.53-2.24l3.6-11.43c.19-.61.88-.44.89.22l.57,39.82c.02,1.5.79,2.83,1.89,3.2Z"/>
        <path class="cls-14" d="M680.06,623.98h18.66c4.48,0,4.48-15.98,0-15.98h-33.23c-2.11,0-3.83,1.71-3.83,3.83v61.72c0,1.69,1.37,3.05,3.05,3.05h36.28c3.04,0,3.04-18.93,0-18.93h-19.1c-1.09,0-1.98-.89-1.98-1.98v-7.95h7.92c6.18,0,6.18-15.3,0-15.3h-5.05c-1.44,0-2.62-1.16-2.64-2.6l-.09-5.86Z"/>
        <path class="cls-14" d="M791.12,476.03c2.51,19.39,8.56,39.57,16.21,60.12,1.86,4.98,6.64,8.27,11.95,8.27h7.55c5.44,0,10.32-3.44,12.07-8.59,5.9-17.33,10.54-37.26,14.28-59.06,1.3-7.56-4.26-14.54-11.91-14.97-.7-.04-1.39-.08-2.08-.11-3.39-.17-6.33,2.32-6.71,5.69-11.61,102.24-20.19-.48-21.99-2.82-1.98-2.59-4.19-3.08-7.38-2.88-7.4.44-12.94,7-11.99,14.36Z"/>
        <path class="cls-14" d="M849.93,513.3c-5.91,33.3,6.83,42.63,13.14,45.18,1.95.79,3.27,2.79,3.27,5.06v17.47c0,2.97,2.2,5.38,4.92,5.38h7.08c2.72,0,4.92-2.41,4.92-5.38v-18.31c0-2.25,1.3-4.22,3.23-5.04,5.71-2.44,8.51-10.12,9.03-11.72.06-.18.11-.36.16-.55,2.28-9.47,2.51-20.19,1.55-31.63-.23-2.75-2.37-4.85-4.9-4.85h-1.08c-2.81,0-3.98,8.07-4.11,11.13,0,0-6.31,43.09-15.95,22.48-1.95-4.16-2.86-8.72-2.86-13.31v-15.22c.37-9.66-18.02-10.37-18.4-.71Z"/>
      </g>
      <g>
        <g>
          <g>
            <path d="M827.35,711.38s2.99,1.92,3.11,5.47c.06,1.67,1.58,1.72,2.82.97-.71,2.39-9.69,5.15-11.12-.93-1.2-5.08,2.42-6.62,5.19-5.51"/>
            <path d="M824.4,686.37c3.57-2.74,4.15-7.76.73-14.82,2.59-.69,2.62-3.4,1.94-6.8-4.75-13.14-6.04-14.4-6.04-14.4.38-.94-2.96,1.47-7.07.8-5.77-.94-10.82,15.83-4.39,18.87-5.74,12.6,2.75,16.63,2.37,16.39-2.71,6.12,2.65,10.85,2.65,10.85-2.68,5.46,2.78,10.33,2.75,9.18-1.36,6.41,6.07,9.32,8.51,5.97,2.44-3.35-.64-7.72-.64-7.72,0,0,2.3-4.81-.45-7.5,0,0,3.63-7.28-.37-10.82Z"/>
          </g>
          <path d="M814.23,654.7s-4.09-2.74-3.41-8.66-1.02-5.86-1.22-6.47-5.56-5.15-.68-10.85c0,0,1.36-8.14,3.8-12.75,2.44-4.61,6.32-20.75,30.22-20.35s32.31,16.89,35.29,23.13c2.98,6.24,4.41,33.12,4.41,33.12,0,0,.75,9.74-4.2,10.96-4.95,1.22-14.07-2.17-12.95-5.42l2.95-1.38s2.76-4.85,2.8-5.91-.68-7.01-3.6-4.29c-1.91,1.77-5.51-1.06-11.05-16.45-5.51-15.29-36.98-16.49-40.87,6.2"/>
          <g>
            <path d="M859.17,714.23s-2.99,1.79-3.11,5.09c-.06,1.55-1.58,1.6-2.82.9.71,2.22,9.69,4.79,11.12-.86,1.2-4.73-2.42-6.16-5.19-5.13"/>
            <path d="M862.12,690.95c-3.57-2.55-4.15-7.23-.73-13.8-2.59-.64-2.62-3.17-1.94-6.33,4.75-12.23,3.78-13.32,3.78-13.32-.38-.87,13.1,2.29,16.41,4.82,1.07.81.88,11.6-2.69,13.4,5.74,11.73-2.75,15.48-2.37,15.26,2.71,5.7-2.65,10.11-2.65,10.11,2.68,5.09-2.78,9.62-2.75,8.55,1.36,5.97-6.07,8.68-8.51,5.56-2.44-3.12.64-7.19.64-7.19,0,0-2.3-4.48.45-6.99,0,0-3.63-6.78.37-10.07Z"/>
          </g>
          <path class="cls-14" d="M858.11,632.09c1.22,3.51,3.01,6.79,5.04,9.9.88,1.35,1.66,2.55,2.02,3.14,1.09,1.8,1.77.57,2.7.11,4.62-2.27,4.38,11.02-1.91,12.04-4.46.72-3.56,15.45-12.95,21.27-3.76,2.33-8.5,3.6-14.31,3.55-33.91-.27-23.6-46.84-23.6-46.84,1.98-6.16,3.1-9.71,8.28-13.2,12.08-8.15,29.7-4.45,34.74,10.03Z"/>
          <circle cx="850.94" cy="647.51" r="2.62"/>
          <circle cx="823.73" cy="647.51" r="2.62"/>
          <path class="cls-3" d="M835.89,645.7l-2.89,11.48s-1.58,3.62,4.34,3.62"/>
          <path d="M843.78,641.41c1.72-1.94,4.13-2.94,6.69-3.06,2.55-.1,5.28.88,6.74,3.06-1.32,0-2.43-.07-3.51-.09-3.3-.14-6.58.43-9.92.09h0Z"/>
          <path d="M816.66,641.41c1.72-1.94,4.13-2.94,6.69-3.06,2.55-.1,5.28.88,6.74,3.06-1.32,0-2.43-.07-3.51-.09-3.3-.14-6.58.43-9.92.09h0Z"/>
        </g>
        <path d="M826.55,667.13c1.54.39,3.1.67,4.47.47,1.61-.24,3.88-1.13,5.26.35,0,0-1.09-.22-1.09-.22,1.6-.66,3.78-1.21,5.39-.04,2.35.89,5.02,1.39,7.55,1.69-2.66.88-5.59.81-8.3.02-.41-.17-.71-.41-1.19-.4-1-.06-2.3.39-3.31.77,0,0-.44-.46-.44-.46-.39-.42-.79-.38-1.4-.37-2.38.31-5.08-.12-6.91-1.8h0Z"/>
        <path d="M829.88,670.32c4.22,1.24,8.45,1.85,12.55,0-3.41,3.21-8.99,2.59-12.55,0h0Z"/>
      </g>
    </g>
  </g>
</svg>